<?xml version="1.0" encoding="UTF-8" standalone="yes"?>
<svg version="1.2" width="800px" height="800px" fill-rule="evenodd" baseProfile="tiny-ps" xmlns="http://www.w3.org/2000/svg">
  <title>bimi-svg-tiny-12-ps</title>
  <g>
    <path fill="#4ca7a0" d="M -0.5,-0.5 C 266.167,-0.5 532.833,-0.5 799.5,-0.5C 799.5,266.167 799.5,532.833 799.5,799.5C 532.833,799.5 266.167,799.5 -0.5,799.5C -0.5,532.833 -0.5,266.167 -0.5,-0.5 Z"/>
  </g>
  <g>
    <path fill="#e9fcfb" d="M 234.5,249.5 C 268.464,248.799 284.464,265.466 282.5,299.5C 280.552,318.19 278.719,336.857 277,355.5C 295.567,343.271 314.4,331.438 333.5,320C 347.609,311.612 362.276,304.279 377.5,298C 386.76,295.262 396.093,294.928 405.5,297C 413.607,300.594 417.941,306.761 418.5,315.5C 417.14,328.884 411.973,340.55 403,350.5C 393.465,359.704 383.632,368.537 373.5,377C 356.612,389.937 339.946,403.103 323.5,416.5C 341.101,438.937 359.267,460.937 378,482.5C 388.836,494.841 395.336,509.175 397.5,525.5C 395.829,551.342 382.162,562.842 356.5,560C 352.714,558.607 349.048,556.941 345.5,555C 316.236,528.072 288.736,499.572 263,469.5C 261.342,498.447 256.342,526.781 248,554.5C 244.194,563.446 239.861,572.112 235,580.5C 231.133,584.702 226.967,588.535 222.5,592C 212.635,596.495 204.468,594.329 198,585.5C 192.669,577.837 188.669,569.504 186,560.5C 178.993,529.869 176.659,498.869 179,467.5C 181.258,426.111 184.258,384.778 188,343.5C 189.532,327.374 191.866,311.374 195,295.5C 198.823,277.993 207.99,264.159 222.5,254C 226.648,252.557 230.648,251.057 234.5,249.5 Z"/>
  </g>
  <g>
    <path fill="#e9fcfb" d="M 609.5,263.5 C 617.53,263.478 625.53,263.978 633.5,265C 641.978,267.141 648.478,271.975 653,279.5C 655.753,285.925 657.753,292.591 659,299.5C 659.036,327.626 657.036,355.626 653,383.5C 649.776,401.177 646.443,418.843 643,436.5C 635.246,466.866 619.746,492.366 596.5,513C 558.454,538.454 521.12,537.454 484.5,510C 463.613,491.405 449.447,468.572 442,441.5C 436.23,420.882 433.73,399.882 434.5,378.5C 433.727,351.349 436.894,324.682 444,298.5C 446.887,291.058 450.554,284.058 455,277.5C 464.282,267.721 475.449,264.887 488.5,269C 503.58,273.751 512.747,283.918 516,299.5C 518.386,308.35 520.053,317.35 521,326.5C 521.147,357.848 521.814,389.182 523,420.5C 524.973,432.118 529.807,442.284 537.5,451C 547.24,457.107 555.073,455.273 561,445.5C 564.025,438.094 566.025,430.427 567,422.5C 571.308,377.778 575.974,333.112 581,288.5C 585.807,274.699 595.307,266.365 609.5,263.5 Z"/>
  </g>
</svg>