<svg version="1.1" id="hahow_logo" xmlns="http://www.w3.org/2000/svg" x="0px"
     y="0px" viewBox="0 0 597.2 145.3" xml:space="preserve">
<style type="text/css">
	.st0{fill:#1A1A1A;}
	.st1{fill:#FA8B00;}
	.st2{fill:none;}
	.st3{fill:url(#SVGID_1_);}
	.st4{fill:#00AAA5;}
	.st5{fill:url(#SVGID_2_);}
	.st6{fill:#FFB115;}
	.st7{fill:#898989;}
	.st8{fill:url(#SVGID_3_);}
	.st9{fill:url(#SVGID_4_);}
	.st10{fill:url(#SVGID_5_);}
	.st11{fill:url(#SVGID_6_);}
	.st12{fill:#FFFFFF;}
	.st13{fill:url(#SVGID_7_);}
	.st14{fill:url(#SVGID_8_);}
	.st15{fill:url(#SVGID_9_);}
	.st16{fill:url(#SVGID_10_);}
	.st17{fill:url(#SVGID_11_);}
	.st18{fill:url(#SVGID_12_);}
	.st19{fill:#666666;}
	.st20{fill:url(#SVGID_13_);}
	.st21{fill:#737373;}
	.st22{fill:url(#SVGID_14_);}
	.st23{fill:#A6A6A6;}
	.st24{fill:url(#SVGID_15_);}
	.st25{fill:url(#SVGID_16_);}
	.st26{fill:#595757;}
	.st27{fill:#00BEA4;}
	.st28{fill:url(#SVGID_17_);}
	.st29{fill:url(#SVGID_18_);}
</style>
<g>
	<g>
		<path class="st1" d="M271.1,93.4v31.3c0,3.8-3.1,6.7-6.7,6.7c-3.6,0-6.6-3-6.6-6.7V93.4c0-9-7.4-16.3-16.5-16.3
			c-9,0-16.3,7.3-16.3,16.3v31.3c0,3.8-3,6.7-6.7,6.7c-3.6,0-6.6-3-6.6-6.7V36.9c0-3.6,3-6.6,6.6-6.6c3.8,0,6.7,3,6.7,6.6v31.7
			c4.7-3.1,10.3-4.9,16.3-4.9C257.7,63.8,271.1,77.1,271.1,93.4z"/>
		<path class="st1" d="M348.8,98.1v26.4c0,3.9-2.8,6.7-6.7,6.7c-2.7,0-6.5-2.8-6.5-6.7c-5.8,4.9-12.3,6.7-20,6.7
			c-19,0-34.1-14.2-34.1-33.2c0-19,15.1-34.1,34.1-34.1C334.6,64,348.8,79.1,348.8,98.1z M335.6,98.1c0-11.3-8.6-20.9-20-20.9
			c-11.3,0-20.9,9.6-20.9,20.9c0,11.3,9.6,20,20.9,20C326.9,118.1,335.6,109.5,335.6,98.1z"/>
		<path class="st1" d="M420.2,93.4v31.3c0,3.8-3.1,6.7-6.7,6.7c-3.6,0-6.6-3-6.6-6.7V93.4c0-9-7.4-16.3-16.5-16.3
			c-9,0-16.3,7.3-16.3,16.3v31.3c0,3.8-3,6.7-6.7,6.7c-3.6,0-6.6-3-6.6-6.7V36.9c0-3.6,3-6.6,6.6-6.6c3.8,0,6.7,3,6.7,6.6v31.7
			c4.7-3.1,10.3-4.9,16.3-4.9C406.8,63.8,420.2,77.1,420.2,93.4z"/>
		<path class="st1" d="M430.7,97.6c0-18.7,15.2-33.9,33.9-33.9c18.7,0,33.9,15.1,33.9,33.9c0,18.6-15.1,33.9-33.9,33.9
			C445.9,131.5,430.7,116.2,430.7,97.6z M444,97.6c0,11.2,9.2,20.5,20.5,20.5c11.3,0,20.5-9.3,20.5-20.5c0-11.3-9.2-20.5-20.5-20.5
			C453.2,77.1,444,86.3,444,97.6z"/>
		<path class="st1" d="M596.9,73.1l-20.2,54c-1.1,2.6-3.6,4.5-6.5,4.5s-5.4-1.8-6.3-4.5l-14-37.4L535.9,127
			c-1.1,2.6-3.6,4.5-6.5,4.5c-2.8,0-5.4-1.8-6.3-4.5l-20.2-54c-1.3-3.5,0.4-7.4,3.9-8.6c3.4-1.3,7.3,0.4,8.5,3.9l14.2,37.6l14-37.4
			c0.7-1.9,2-3.5,4-4.2c0.7-0.3,1.3-0.4,2-0.4h0.3h0.1h0.3h0.1h0.1h0.1h0.1h0.3c0,0,0,0.1,0.1,0.1h0.1h0.1c0.1,0,0.1,0,0.3,0.1h0.3
			c0.1,0.1,0.1,0.1,0.3,0.1c1.9,0.7,3.4,2.3,3.9,4.2l14,37.4l14.2-37.6c1.3-3.5,5.1-5.3,8.6-3.9C596.3,65.6,598.1,69.6,596.9,73.1z"
			/>
	</g>
	<g>
		<g>
			<linearGradient id="SVGID_1_" gradientUnits="userSpaceOnUse" x1="126.6167" y1="22.9025" x2="20.6377" y2="82.1261">
				<stop  offset="0" style="stop-color:#00E6AA"/>
				<stop  offset="8.085183e-02" style="stop-color:#00E1A9"/>
				<stop  offset="0.612" style="stop-color:#00C8A5"/>
				<stop  offset="0.9297" style="stop-color:#00BEA4"/>
			</linearGradient>
			<path class="st3" d="M132.9,46.7c20.5-10.8,36.7-9.4,45.9-4.6c-0.3-0.2-0.5-0.4-0.8-0.5L112.9,6.7c-12.9-6.9-28.3-6.9-41.1,0
				L6.9,41.5c-9.2,4.9-9.2,18.2,0,23.1l46.6,24.8C53.5,89.4,112.3,57.5,132.9,46.7z"/>
			<path class="st4" d="M88.1,70.4c0,0,24.2-12.9,44.8-23.7s36.8-9.4,46-4.6c8.6,4.5,7.7,18-0.9,22.5c-9.2,4.8-46.3,24.6-46.3,24.6
				S106,75.5,100.9,72.7C95.7,69.9,93.3,68.5,88.1,70.4z"/>
		</g>
		<g>
			<linearGradient id="SVGID_2_" gradientUnits="userSpaceOnUse" x1="64.8816" y1="133.964" x2="138.1318" y2="92.6634">
				<stop  offset="0" style="stop-color:#E66E00"/>
				<stop  offset="0.781" style="stop-color:#FA8B00"/>
			</linearGradient>
			<path class="st5" d="M155.2,101.9l-23.5-12.6l-33.3,17.7c0,0-15.3,8.6-26.7,14.7c-11.4,6.1-33.6,1-41.4-3.3l40.6,21.6
				c13.6,7.2,30,7.2,43.6,0l40.6-21.6C161.7,114.8,161.7,105.4,155.2,101.9z"/>
			<path class="st6" d="M71.7,121.6c-11.4,6.1-33.6,1-41.4-3.3c-7.9-4.3-6.3-13,0-16.4c6.3-3.4,23.2-12.5,23.2-12.5
				s29,15.3,33.2,17.5c4.1,2.2,8.4,1.8,11.7,0C98.4,106.9,83.1,115.5,71.7,121.6z"/>
		</g>
	</g>
	<g>
		<g>
			<polygon class="st7" points="411.8,32 407.2,32.6 412.7,2.2 417.3,2.2 			"/>
			<path class="st7" d="M441.1,50c-0.3,0.1-0.6,0.3-1,0.3h-7.1v-4.5h7.9l0,0.3L441.1,50z"/>
			<polygon class="st7" points="425.6,40.8 425.6,46.4 407.2,32.6 408.4,27.6 			"/>
			<path class="st7" d="M425.6,14.7c0,0,0,0.1,0,0.1l-0.1,0.3c0,0,0,0,0,0l0,0.1c0,0,0,0,0,0l-0.1,0.5c0,0,0,0,0,0l-0.3,1.6
				L421,40.1l-4.3-1.8l3.8-21h-14.8v-4.6h17.9c0.3,0,0.5,0.1,0.8,0.1c0.1,0.1,0.2,0.1,0.3,0.2c0.1,0,0.1,0.1,0.2,0.1
				c0.1,0.1,0.2,0.2,0.3,0.3c0,0,0.1,0.1,0.1,0.2c0.1,0.1,0.1,0.2,0.2,0.3C425.6,14.2,425.6,14.4,425.6,14.7z"/>
			<rect x="427.7" y="23" class="st7" width="25.6" height="4.6"/>
			<polyline class="st7" points="420.6,39 412.8,48 406.8,48 416.7,36.5 			"/>
			<path class="st7" d="M452.3,6.7c0-1.1-0.9-2-2-2c0,0-0.1,0-0.1,0l0,0c0,0,0.1,0,0.1,0h-20.5v4.6h15.7l-7.2,8.6v32.4h2.8
				c1.1-0.2,1.9-1.1,1.9-2.2V18.5l5.8-6.9l3.1-3.6c0,0,0.2-0.3,0.2-0.2C452.2,7.5,452.3,7.1,452.3,6.7z M451.7,8.1
				C451.7,8.1,451.7,8.1,451.7,8.1C451.7,8.2,451.7,8.2,451.7,8.1L451.7,8.1C451.7,8.1,451.7,8.1,451.7,8.1z"/>
		</g>
		<g>
			<path class="st7" d="M564.4,16.2h-4.6l0,10.8v23.5H555v-21l0-13.3h-6.7v-4.8h6.8V2.3h4.8v9.2h4.6V16.2z M575.8,13.5l-5.4,9.7
				h-5.7l5.4-9.7H575.8z M593.4,5.5v4.9h-27V5.5h10.8V0.9h4.9v4.6H593.4z M594.7,50h-7.1l-7.6-8.3l-7.1,8.3h-6.5l10.6-12.3l-8-11.7
				h5.7l5.3,8l4.7-8h5.5l-7.1,11.8L594.7,50z M585.1,13.5h5.7l5.4,9.7h-5.6L585.1,13.5z"/>
			<polygon class="st7" points="552.3,36.9 547.9,36.9 555,17 559.4,17 			"/>
			<polygon class="st7" points="562.7,32.6 567.7,32.6 561.7,22.2 556.7,22.2 			"/>
		</g>
		<g>
			<g>
				<rect x="511.4" y="8.3" class="st7" width="8.4" height="3.3"/>
				<rect x="511.4" y="14.5" class="st7" width="8.4" height="3.3"/>
				<path class="st7" d="M522.5,4.8c0,0,0,0.1,0,0.1c0,0,0,0.1,0,0.1L521.3,20l-0.1,1.7h-4.4L518,6.4h-8.5V2.2h10.7
					C521.4,2.2,522.5,3.6,522.5,4.8z"/>
			</g>
			<rect x="493.5" y="46.4" class="st7" width="9.3" height="4.1"/>
			<g>
				<rect x="483.1" y="8.3" class="st7" width="7.8" height="3.3"/>
				<rect x="483.1" y="14.5" class="st7" width="7.8" height="3.3"/>
				<polygon class="st7" points="485.6,21.2 481.2,21.2 479.7,3.7 484.1,3.7 				"/>
				<polygon class="st7" points="480.6,7.7 479.7,3.7 491.5,0 491.5,4.4 				"/>
			</g>
			
				<rect x="474" y="22.7" transform="matrix(6.123234e-17 -1 1 6.123234e-17 453.6707 503.3398)" class="st7" width="8.9" height="4.3"/>
			<path class="st7" d="M508.1,4.3l-5.8,5.8c-0.1,0.1-0.2,0.2-0.3,0.3c-0.3,0.3-0.7,0.4-1.2,0.4c-0.4,0-0.9-0.2-1.2-0.4
				c-0.1-0.1-0.2-0.2-0.3-0.3l-5.9-5.8c0.6-1.7,2.7-2.8,4.7-1l2.6,2.5l2.8-2.8C505.3,1.4,508.1,2.5,508.1,4.3z"/>
			<path class="st7" d="M508.1,12.7l-5.8,5.8c-0.1,0.1-0.2,0.2-0.3,0.3c-0.3,0.3-0.7,0.4-1.2,0.4c-0.4,0-0.9-0.2-1.2-0.4
				c-0.1-0.1-0.2-0.2-0.3-0.3l-5.9-5.8c0.6-1.7,2.7-2.8,4.7-1l2.6,2.5l2.8-2.8C505.3,9.9,508.1,11,508.1,12.7z"/>
			<rect x="480" y="35.8" class="st7" width="42.1" height="4.1"/>
			<path class="st7" d="M524,20.7c-0.2-0.1-0.5-0.2-0.8-0.3c-0.3-0.1-0.8-0.1-0.8-0.1h-43.2v4.4h39h2.6v4.6h4.3v-6.5
				C525.2,21.9,524.7,21.1,524,20.7z"/>
			<path class="st7" d="M510.3,27h-20.5v3.5h14.6l-5.4,3.4v16.6h4.6V35.2l7.7-5.4c0,0,0.3-0.3,0.3-0.3c0.2-0.3,0.3-0.6,0.3-1
				C511.9,27.7,511.2,27,510.3,27z"/>
		</g>
	</g>
</g>
</svg>
