<?xml version="1.0" encoding="iso-8859-1"?>
<!-- Generator: Adobe Illustrator 19.0.0, SVG Export Plug-In . SVG Version: 6.00 Build 0)  -->
<svg version="1.1" id="Capa_1" xmlns="http://www.w3.org/2000/svg" xmlns:xlink="http://www.w3.org/1999/xlink" x="0px" y="0px"
	 viewBox="0 0 511.957 511.957" style="enable-background:new 0 0 511.957 511.957;" xml:space="preserve">
<g>
	<rect x="42.485" y="132.429" style="fill:#4398D1;" width="134.943" height="134.943"/>
	<rect x="8.757" y="157.731" style="fill:#4398D1;" width="33.736" height="84.34"/>
</g>
<polygon style="fill:#3F8FC4;" points="177.436,151.406 65.467,267.373 177.436,267.373 "/>
<path style="fill:#F0E4D6;" d="M405.153,14.354c-13.975,0-25.302,11.327-25.302,25.302v8.434l-202.415,84.34v134.943l202.415,84.34
	v8.434c0,13.975,11.327,25.302,25.302,25.302c13.975,0,25.302-11.327,25.302-25.302V39.656
	C430.455,25.689,419.128,14.354,405.153,14.354z"/>
<path style="fill:#EBDCCA;" d="M209.899,280.867l169.953,70.845v8.434c0,13.975,11.327,25.302,25.302,25.302
	c13.975,0,25.302-11.327,25.302-25.302V67.117C375.187,171.588,277.707,241.944,209.899,280.867z"/>
<path style="fill:#FEC9A3;" d="M185.642,455.753c1.569-9.185-4.613-17.897-13.798-19.466c-0.936-0.16-1.889-0.245-2.842-0.236
	c9.32,0,16.868-7.548,16.868-16.868c0-9.32-7.548-16.868-16.868-16.868c9.32,0,16.868-7.548,16.868-16.868
	c0-9.319-7.548-16.868-16.868-16.868h24.399c8.476,0.186,15.864-5.727,17.543-14.034c1.569-9.185-4.613-17.897-13.798-19.466
	c-0.936-0.16-1.889-0.245-2.842-0.236H143.7c18.631,0,33.736-15.105,33.736-33.736H76.229l-50.604,33.736H0.323v134.943H168.1
	C176.576,469.981,183.973,464.069,185.642,455.753z"/>
<g>
	<polygon style="fill:#F0E4D6;" points="148.516,301.108 143.7,267.373 76.229,267.373 81.045,301.108 	"/>
	<polygon style="fill:#F0E4D6;" points="105.149,469.788 109.965,503.523 177.436,503.523 172.62,469.788 	"/>
</g>
<g>
	<rect x="67.786" y="157.731" style="fill:#3685BA;" width="16.868" height="25.302"/>
	<rect x="101.522" y="157.731" style="fill:#3685BA;" width="16.868" height="25.302"/>
	<rect x="135.258" y="157.731" style="fill:#3685BA;" width="16.868" height="25.302"/>
</g>
<g>
	
		<rect x="458.283" y="90.283" transform="matrix(-0.7807 0.6249 -0.6249 -0.7807 925.8346 -127.4697)" style="fill:#87CED9;" width="54.002" height="16.868"/>
	
		<rect x="457.187" y="14.398" transform="matrix(-0.7071 0.7071 -0.7071 -0.7071 837.3347 -301.1717)" style="fill:#87CED9;" width="47.71" height="16.868"/>
	
		<rect x="476.834" y="282.534" transform="matrix(-0.6247 0.7809 -0.7809 -0.6247 1030.1166 123.9616)" style="fill:#87CED9;" width="16.868" height="54.004"/>
	
		<rect x="472.614" y="361.608" transform="matrix(-0.7071 0.7071 -0.7071 -0.7071 1093.7639 317.8743)" style="fill:#87CED9;" width="16.868" height="47.71"/>
</g>
<path style="fill:#F5B789;" d="M152.134,343.278h-42.17c-4.656,0-8.434-3.778-8.434-8.434c0-4.656,3.778-8.434,8.434-8.434h42.17
	c4.656,0,8.434,3.778,8.434,8.434C160.568,339.5,156.798,343.278,152.134,343.278z"/>
<g>
	<polygon style="fill:#E0D2C1;" points="497.926,225.203 430.455,242.071 430.455,157.731 497.926,174.599 	"/>
	<path style="fill:#E0D2C1;" d="M379.851,326.41c-4.656,0-8.434-3.778-8.434-8.434V48.09c0-4.656,3.778-8.434,8.434-8.434
		s8.434,3.778,8.434,8.434v269.887C388.285,322.64,384.515,326.41,379.851,326.41z"/>
</g>
<path d="M101.615,504.721c0.599,4.15,4.158,7.236,8.35,7.236h67.472c4.656,0,8.434-3.778,8.434-8.434
	c0-0.405-0.025-0.801-0.084-1.198l-3.981-27.9c6.41-3.677,10.863-10.011,12.162-17.29c1.223-7.363-0.86-14.886-5.684-20.57
	c-0.135-0.169-0.278-0.337-0.43-0.498c8.611-9.598,8.611-24.138,0-33.736c6.165-6.882,8.097-16.581,5.018-25.302h0.54
	c12.592,0.16,23.48-8.721,25.867-21.085c2.336-13.773-6.933-26.837-20.714-29.181c-1.408-0.236-2.834-0.354-4.259-0.354h-16.868
	c5.49-7.295,8.451-16.176,8.434-25.302c0-4.656-3.778-8.434-8.434-8.434h-21.599l-2.412-16.868h22.325l195.668,81.531v2.809
	c0,18.631,15.105,33.736,33.736,33.736c18.631,0,33.736-15.105,33.736-33.736V248.658l61.079-15.274
	c3.753-0.936,6.393-4.31,6.393-8.181v-50.604c0-3.871-2.64-7.245-6.393-8.181l-61.079-15.274V39.656
	c0-18.631-15.105-33.736-33.736-33.736c-18.631,0-33.736,15.105-33.736,33.736v2.809l-195.668,81.531H42.493
	c-4.656,0-8.434,3.778-8.434,8.434v16.868H8.757c-4.656,0-8.434,3.778-8.434,8.434v84.34c0,4.656,3.778,8.434,8.434,8.434h25.302
	v16.868c0,4.656,3.778,8.434,8.434,8.434h26.415l2.615,18.302L23.095,326.41H0.323v16.868h25.302c1.661,0,3.289-0.498,4.681-1.417
	l48.453-32.319h88.801c-3.584,10.104-13.14,16.851-23.86,16.868h-33.736c-4.656,0-8.434,3.778-8.434,8.434
	c0,4.656,3.778,8.434,8.434,8.434h84.34c4.656,0,8.434,3.77,8.434,8.434c0,0.498-0.042,0.995-0.126,1.476
	c-1.029,4.209-4.875,7.118-9.21,6.958h-24.399c-4.656,0-8.434,3.778-8.434,8.434s3.778,8.434,8.434,8.434
	c4.656,0,8.434,3.778,8.434,8.434c0,4.656-3.778,8.434-8.434,8.434c-4.656,0-8.434,3.778-8.434,8.434s3.778,8.434,8.434,8.434
	c4.656,0,8.434,3.778,8.434,8.434c0,4.656-3.778,8.434-8.434,8.434c-4.656,0-8.434,3.778-8.434,8.434s3.778,8.434,8.434,8.434
	c4.656,0,8.434,3.77,8.434,8.434c0,0.498-0.042,0.995-0.127,1.476c-1.029,4.209-4.875,7.118-9.21,6.958H0.323v16.868h97.505
	L101.615,504.721z M438.889,168.535l50.604,12.651v37.43l-50.604,12.651V168.535z M388.285,351.712V39.656
	c0-9.32,7.548-16.868,16.868-16.868c9.32,0,16.868,7.548,16.868,16.868v320.49c0,9.32-7.548,16.868-16.868,16.868
	c-9.319,0-16.868-7.548-16.868-16.868V351.712z M185.87,138.055l185.547-77.314v278.32L185.87,261.747V138.055z M34.059,233.637
	H17.191v-67.472h16.868V233.637z M88.357,292.674l-2.404-16.868h50.435l2.404,16.868H88.357z M143.7,258.939H50.927V140.863h118.075
	v118.075H143.7z M165.308,478.221l2.404,16.868h-50.435l-2.404-16.868H165.308z"/>
<rect x="67.786" y="157.731" width="16.868" height="25.302"/>
<rect x="101.522" y="157.731" width="16.868" height="25.302"/>
<rect x="135.258" y="157.731" width="16.868" height="25.302"/>
<rect x="458.283" y="90.283" transform="matrix(-0.7807 0.6249 -0.6249 -0.7807 925.8346 -127.4697)" width="54.002" height="16.868"/>
<rect x="457.187" y="14.398" transform="matrix(-0.7071 0.7071 -0.7071 -0.7071 837.3347 -301.1717)" width="47.71" height="16.868"/>
<rect x="476.834" y="282.534" transform="matrix(-0.6247 0.7809 -0.7809 -0.6247 1030.1166 123.9616)" width="16.868" height="54.004"/>
<rect x="472.614" y="361.608" transform="matrix(-0.7071 0.7071 -0.7071 -0.7071 1093.7639 317.8743)" width="16.868" height="47.71"/>
<g>
</g>
<g>
</g>
<g>
</g>
<g>
</g>
<g>
</g>
<g>
</g>
<g>
</g>
<g>
</g>
<g>
</g>
<g>
</g>
<g>
</g>
<g>
</g>
<g>
</g>
<g>
</g>
<g>
</g>
</svg>
